<?xml version="1.0" encoding="utf-8"?>
<!-- Generator: Adobe Illustrator 16.0.0, SVG Export Plug-In . SVG Version: 6.00 Build 0)  -->
<!DOCTYPE svg PUBLIC "-//W3C//DTD SVG 1.1//EN" "http://www.w3.org/Graphics/SVG/1.1/DTD/svg11.dtd">
<svg version="1.1" id="Layer_1" xmlns="http://www.w3.org/2000/svg" xmlns:xlink="http://www.w3.org/1999/xlink" x="0px" y="0px"
	 width="360px" height="360px" viewBox="0 0 360 360" enable-background="new 0 0 360 360" xml:space="preserve">
<g>
	<g>
		<path d="M20.557,289.096h5.61v10.092h10.345v-10.092h5.614v25.505h-5.614v-10.24H26.167v10.24h-5.61V289.096z"/>
		<path d="M55.897,289.096h19.202v4.988H61.436v5.176h12.023v4.992H61.436v5.355h13.843v4.993H55.897V289.096z"/>
		<path d="M87.235,289.096h5.612v20.402h12.717v5.103H87.235V289.096z"/>
		<path d="M115.983,289.096h5.609v20.402h12.715v5.103h-18.324V289.096z"/>
		<path d="M154.201,315.035c-1.961,0-3.777-0.345-5.428-1.037c-1.651-0.694-3.08-1.627-4.277-2.805
			c-1.208-1.179-2.143-2.565-2.807-4.156c-0.668-1.589-1.005-3.297-1.005-5.117v-0.072c0-1.822,0.337-3.527,1.022-5.123
			c0.682-1.591,1.623-2.986,2.825-4.188c1.2-1.202,2.639-2.15,4.296-2.843c1.665-0.692,3.48-1.037,5.447-1.037
			s3.777,0.345,5.43,1.037c1.655,0.692,3.078,1.631,4.28,2.808c1.2,1.178,2.141,2.562,2.811,4.152c0.662,1.592,0.991,3.3,0.991,5.12
			v0.074c0,1.819-0.337,3.527-1.013,5.12c-0.681,1.588-1.62,2.987-2.82,4.187c-1.206,1.203-2.637,2.149-4.3,2.844
			C157.983,314.69,156.169,315.035,154.201,315.035z M154.274,309.862c1.148,0,2.186-0.206,3.121-0.62
			c0.931-0.41,1.737-0.983,2.399-1.713c0.669-0.727,1.194-1.572,1.572-2.532c0.372-0.958,0.562-1.983,0.562-3.077v-0.072
			c0-1.094-0.19-2.128-0.562-3.1c-0.377-0.968-0.914-1.821-1.605-2.55c-0.691-0.728-1.508-1.307-2.445-1.73
			c-0.929-0.425-1.973-0.637-3.115-0.637c-1.117,0-2.149,0.207-3.098,0.619c-0.945,0.41-1.75,0.982-2.422,1.712
			c-0.67,0.731-1.192,1.571-1.564,2.529c-0.381,0.965-0.569,1.988-0.569,3.082v0.074c0,1.094,0.188,2.125,0.569,3.098
			c0.372,0.97,0.91,1.819,1.599,2.551c0.695,0.727,1.514,1.305,2.46,1.729C152.123,309.649,153.157,309.862,154.274,309.862z"/>
		<path d="M177.559,289.096h3.13l7.288,21.239l6.999-21.31h2.361l6.998,21.31l7.289-21.239h3.021l-9.108,25.686H203.1l-6.999-20.694
			l-7.031,20.694h-2.404L177.559,289.096z"/>
		<path d="M221.429,301.92v-0.072c0-7.031,5.28-13.188,13.042-13.188c7.759,0,12.968,6.083,12.968,13.114
			c0.039,0.038,0.039,0.038,0,0.074c0,7.031-5.28,13.188-13.04,13.188C226.64,315.035,221.429,308.95,221.429,301.92z
			 M244.454,301.92v-0.072c0-5.791-4.225-10.529-10.056-10.529s-9.981,4.663-9.981,10.455v0.074c0,5.792,4.229,10.528,10.054,10.528
			C240.301,312.376,244.454,307.715,244.454,301.92z"/>
		<path d="M257.538,289.096h10.963c3.133,0,5.646,0.948,7.248,2.55c1.243,1.236,1.971,3.025,1.971,5.03v0.07
			c0,4.229-2.915,6.704-6.921,7.432l7.829,10.423h-3.531l-7.393-9.911h-0.076h-7.215v9.911h-2.875V289.096z M268.246,302.104
			c3.823,0,6.559-1.968,6.559-5.247v-0.069c0-3.138-2.406-5.031-6.522-5.031h-7.869v10.348H268.246z"/>
		<path d="M290.073,289.096h2.879v22.846h14.353v2.659h-17.231V289.096z"/>
		<path d="M318.821,289.096h8.853c8.015,0,13.552,5.504,13.552,12.678v0.074c0,7.176-5.537,12.753-13.552,12.753h-8.853V289.096z
			 M327.674,311.941c6.45,0,10.562-4.373,10.562-10.021v-0.072c0-5.647-4.112-10.092-10.562-10.092h-5.976v20.186H327.674z"/>
	</g>
	<g>
		<path fill="#008DD4" d="M180.78,252.6c-51.187,0-93.297-38.87-98.426-88.703h-9.689c5.167,55.172,51.59,98.36,108.115,98.36
			s102.945-43.188,108.114-98.36h-9.689C274.075,213.729,231.967,252.6,180.78,252.6z"/>
		<path d="M180.78,54.693c54.633,0,98.926,44.278,98.949,98.905h9.658C289.364,93.639,240.746,45.036,180.78,45.036
			c-59.968,0-108.585,48.603-108.61,108.562h9.658C81.853,98.972,126.147,54.693,180.78,54.693z"/>
		<path fill="#008DD4" d="M151.394,218.652c0.834,1.443,2.354,2.341,3.966,2.343l0.128-0.002c1.684-0.031,3.208-0.993,3.977-2.51
			l21.322-42.649l0.215,0.433l21.104,42.21c0.765,1.521,2.296,2.485,3.995,2.517h0.083c1.649,0,3.178-0.895,3.988-2.332
			l30.409-54.766h-10.427l-23.765,42.77l-0.204-0.41l-21.321-42.657c-0.769-1.554-2.333-2.517-4.077-2.517
			c-1.75,0-3.316,0.967-4.083,2.526l-21.527,43.058l-0.064-0.114l-23.697-42.656H120.99L151.394,218.652z"/>
		<polygon points="131.314,105.686 121.637,105.686 121.637,153.598 131.314,153.598 131.314,133.976 230.252,133.976 
			230.252,153.598 239.928,153.598 239.928,105.686 230.252,105.686 230.252,124.307 131.314,124.307 		"/>
	</g>
</g>
</svg>
